<?xml version="1.0"?>
<svg xmlns="http://www.w3.org/2000/svg" xmlns:xlink="http://www.w3.org/1999/xlink" xmlns:svgjs="http://svgjs.com/svgjs" version="1.1" width="512" height="512" x="0" y="0" viewBox="0 0 512 512" style="enable-background:new 0 0 512 512" xml:space="preserve" class=""><g><g xmlns="http://www.w3.org/2000/svg"><path d="m366 300h-45v-30.185c30.173-20.75 50-55.508 50-94.815v-100c0-41.355-33.645-75-75-75h-130c-35.841 0-65 29.159-65 65 0 26.986 16.533 50.177 40 59.993v50.007c0 39.307 19.827 74.065 50 94.815v30.185h-45c-52.383 0-95 42.617-95 95v102c0 8.284 6.716 15 15 15h380c8.284 0 15-6.716 15-15v-102c0-52.383-42.617-95-95-95zm-200-270h130c24.813 0 45 20.187 45 45v24.691c-20.552-1.718-39.644-10.548-54.394-25.298-2.812-2.813-6.627-4.393-10.606-4.393s-7.794 1.58-10.606 4.394c-16.513 16.512-38.467 25.606-61.82 25.606h-37.574c-2.376 0-4.696-.24-6.94-.694-.039-.008-.079-.014-.118-.022-15.928-3.274-27.942-17.402-27.942-34.284 0-19.299 15.701-35 35-35zm5 145v-45h32.574c26.595 0 51.842-8.782 72.426-24.974 18.657 14.675 41.15 23.239 65 24.719v45.255c0 46.869-38.131 85-85 85s-85-38.131-85-85zm85 115c12.2 0 23.959-1.917 35-5.452v30.452c0 8.284 6.716 15 15 15h60c35.841 0 65 29.159 65 65v45.856l-50-29.231v-16.625c0-8.284-6.716-15-15-15-7.985 0-14.494 6.244-14.955 14.113l-130.333-76.195c.186-.944.289-1.919.289-2.918v-30.452c11.04 3.535 22.799 5.452 34.999 5.452zm-175 105c0-33.647 25.7-61.402 58.501-64.674l71.801 81.674h-10.302c-27.57 0-50 22.43-50 50 0 7.109 1.501 13.871 4.187 20h-74.187zm100 67c0-11.028 8.972-20 20-20h36.676l35.165 40h-71.841c-11.028 0-20-8.972-20-20zm131.786 20-133.627-152h2.778l249.063 145.606v6.394z" fill="#ffffff" data-original="#000000" style=""/></g></g></svg>
