<?xml version="1.0" encoding="utf-8"?>
<!-- Generator: Adobe Illustrator 18.0.0, SVG Export Plug-In . SVG Version: 6.00 Build 0)  -->
<!DOCTYPE svg PUBLIC "-//W3C//DTD SVG 1.1//EN" "http://www.w3.org/Graphics/SVG/1.1/DTD/svg11.dtd">
<svg version="1.1" id="Layer_1" xmlns:svgjs="http://svgjs.com/svgjs"
	 xmlns="http://www.w3.org/2000/svg" xmlns:xlink="http://www.w3.org/1999/xlink" x="0px" y="0px" viewBox="0 0 512 512"
	 enable-background="new 0 0 512 512" xml:space="preserve">
<g>
	<g>
		<path fill="#FF008D" d="M434,43.9h-86.6C325.8,17.3,292.9,0.3,256,0.3s-69.8,17-91.4,43.7H78c-43,0-78,35-78,78v389.8h512V121.9
			C512,78.9,477,43.9,434,43.9L434,43.9z M256,30.3c46.7,0,85.1,36.8,87.5,82.9H271V62.7h-30v50.4h-72.5
			C170.9,67,209.3,30.3,256,30.3z M482,481.7H271v-96.6h-30v96.6H30V121.9c0-26.5,21.5-48,48-48h68.9c-5.5,13.6-8.5,28.4-8.5,44
			v25.3h235.3v-25.3c0-15.5-3-30.4-8.5-44H434c26.5,0,48,21.5,48,48L482,481.7L482,481.7z"/>
		<path fill="#FF008D" d="M150.9,179.9c-38.2,0-69.2,31-69.2,69.2v152.7c0,28.2,23,51.2,51.2,51.2c23.8,0,44.3-16.2,49.8-39.3
			l35.5-148.5c5-20.7,0.2-42.2-13-58.9S172.2,179.9,150.9,179.9L150.9,179.9z M189,258.2l-35.5,148.5c-2.3,9.6-10.8,16.3-20.6,16.3
			c-11.7,0-21.2-9.5-21.2-21.2V249.1c0-21.6,17.6-39.2,39.2-39.2c12.1,0,23.3,5.4,30.8,14.9C189.1,234.3,191.8,246.5,189,258.2
			L189,258.2z"/>
		<path fill="#FF008D" d="M361.1,179.9c-21.3,0-41.1,9.6-54.3,26.3c-13.2,16.7-17.9,38.2-13,59l35.5,148.5
			c5.5,23.1,26,39.3,49.8,39.3h0c28.2,0,51.2-23,51.2-51.2V249.1C430.3,211,399.3,179.9,361.1,179.9z M400.3,401.8
			c0,11.7-9.5,21.2-21.2,21.2c-9.8,0-18.3-6.7-20.6-16.3L323,258.2c-2.8-11.7-0.1-23.9,7.4-33.4s18.7-14.9,30.8-14.9
			c21.6,0,39.2,17.6,39.2,39.2L400.3,401.8L400.3,401.8z"/>
	</g>
</g>
</svg>
