<?xml version="1.0" encoding="utf-8"?>
<!-- Generator: Adobe Illustrator 18.0.0, SVG Export Plug-In . SVG Version: 6.00 Build 0)  -->
<!DOCTYPE svg PUBLIC "-//W3C//DTD SVG 1.1//EN" "http://www.w3.org/Graphics/SVG/1.1/DTD/svg11.dtd">
<svg version="1.1" id="Layer_1" xmlns:svgjs="http://svgjs.com/svgjs"
	 xmlns="http://www.w3.org/2000/svg" xmlns:xlink="http://www.w3.org/1999/xlink" x="0px" y="0px" viewBox="0 0 512 512"
	 enable-background="new 0 0 512 512" xml:space="preserve">
<g>
	<g>
		<path fill="#FF8100" d="M305.5,347.1c11.6,3.3,23.8,3.8,36,1.3c28.1-5.8,54.5-33.6,58.7-61.9c5.4-36.1-15.6-70.2-48.8-82.1
			L328.7,62c-2.8-17.3-11.6-33-24.9-44.4C290.5,6.3,273.5,0,256,0s-34.5,6.3-47.8,17.6C194.9,29,186.1,44.7,183.3,62l-22.7,142.4
			c-33.2,11.9-54.2,46-48.8,82.1c4.2,28.3,30.6,56.1,58.7,61.9c5.2,1.1,10.3,1.6,15.5,1.6c7,0,13.8-1,20.5-2.9
			c11.9,14,29.7,22.9,49.5,22.9C275.8,370,293.5,361.1,305.5,347.1z M256,340c-19.3,0-35-15.7-35-35c0-18.1-10-34.3-26.2-42.4
			l-2.1-1.1c-7.4-3.7-16.4-0.7-20.1,6.7s-0.7,16.4,6.7,20.1l2.1,1.1c5.9,3,9.6,8.9,9.6,15.5c0,5,0.6,9.8,1.6,14.5
			c-5.3,0.8-10.7,0.7-16-0.5c-15.7-3.2-32.7-21.2-35.1-37c-3.6-23.9,12-46.3,35.4-51.1c6.1-1.3,10.8-6.2,11.8-12.3l24.2-151.8
			C216.3,45.5,234.4,30,256,30s39.7,15.5,43.1,36.7l24.2,151.8c1,6.2,5.7,11.1,11.8,12.3c23.4,4.8,39,27.2,35.4,51.1
			c-2.4,15.8-19.4,33.8-35.1,37c-5.4,1.1-10.8,1.2-16,0.5c1.1-4.7,1.6-9.5,1.6-14.5c0-6.6,3.7-12.6,9.6-15.5l2.1-1.1
			c7.4-3.7,10.4-12.7,6.7-20.1c-3.7-7.4-12.7-10.4-20.1-6.7l-2.1,1.1C301,270.7,291,286.9,291,305C291,324.3,275.3,340,256,340
			L256,340z"/>
		<path fill="#FF8100" d="M406,482c-34.5,0-63.6-23.4-72.3-55.1l18.7,4.7c8,2,16.2-2.9,18.2-10.9c2-8-2.9-16.2-10.9-18.2l-40-10
			c-4.5-1.1-9.2-0.1-12.9,2.7s-5.8,7.2-5.8,11.8c0,57.9,47.1,105,105,105c8.3,0,15-6.7,15-15S414.3,482,406,482z"/>
		<path fill="#FF8100" d="M205.2,395.2c-3.6-2.8-8.4-3.9-12.9-2.7l-40,10c-8,2-12.9,10.2-10.9,18.2c2,8,10.2,12.9,18.2,10.9
			l18.7-4.7c-8.7,31.7-37.8,55.1-72.3,55.1c-8.3,0-15,6.7-15,15s6.7,15,15,15c57.9,0,105-47.1,105-105
			C211,402.4,208.9,398,205.2,395.2z"/>
	</g>
</g>
</svg>
