<?xml version="1.0" encoding="utf-8"?>
<!-- Generator: Adobe Illustrator 18.0.0, SVG Export Plug-In . SVG Version: 6.00 Build 0)  -->
<!DOCTYPE svg PUBLIC "-//W3C//DTD SVG 1.1//EN" "http://www.w3.org/Graphics/SVG/1.1/DTD/svg11.dtd">
<svg version="1.1" id="Layer_1" xmlns:svgjs="http://svgjs.com/svgjs"
	 xmlns="http://www.w3.org/2000/svg" xmlns:xlink="http://www.w3.org/1999/xlink" x="0px" y="0px" viewBox="0 0 512 512"
	 enable-background="new 0 0 512 512" xml:space="preserve">
<g>
	<g>
		<path fill="#007EFF" d="M496,263.7c27.5-45.8,13.7-91.9,1.5-132.5c-11.4-38-22.2-74-1.5-108.5c2.8-4.6,2.9-10.4,0.2-15.1
			c-2.7-4.7-7.6-7.6-13.1-7.6H354.6c-5.3,0-10.2,2.8-12.9,7.3c-1.2,2.1-2.4,4.1-3.5,6.2C311.9,4.5,284.3,0,256,0
			C187.7,0,123.4,26.6,75,75C26.7,123.3,0,187.6,0,256s26.6,132.7,75,181c48.4,48.4,112.6,75,181,75c28.9,0,56.9-4.7,83.6-13.9
			c0.2,2.2,0.8,4.4,1.9,6.3c2.7,4.7,7.6,7.6,13.1,7.6l64.2,0c0,0,0,0,0,0c0,0,0,0,0,0l64.2,0c5.3,0,10.2-2.8,12.9-7.3
			c27.5-45.9,13.7-91.9,1.5-132.5C486.1,334.1,475.3,298.2,496,263.7L496,263.7z M30,256C30,131.4,131.4,30,256,30
			c24.8,0,49,4,72.1,11.8c-7.1,34.1,2.9,67.6,12.1,98.1c11.4,38,22.2,74,1.5,108.5c-27.5,45.8-13.7,91.9-1.5,132.5
			c8.3,27.6,16.2,54.1,12.1,79.7C322.1,474.8,289.8,482,256,482C131.4,482,30,380.6,30,256L30,256z M379.8,475.4
			c0.2-0.6,0.4-1.3,0.5-2c8.4-35.2-1.9-69.8-11.4-101.2c-11.4-38-22.2-74-1.5-108.5c27.5-45.8,13.7-91.9,1.5-132.5
			c-10.6-35.4-20.7-68.9-5.4-101.2h32c-12.5,38.2-1.2,75.9,8.9,109.8c11.4,38,22.2,74,1.5,108.5c-27.5,45.8-13.7,91.9-1.5,132.5
			c10.6,35.4,20.7,68.9,5.4,101.2l-32,0C378.6,479.8,379.3,477.6,379.8,475.4L379.8,475.4z M468.8,380.8
			c10.6,35.4,20.7,68.9,5.4,101.2l-32,0c12.5-38.2,1.2-75.9-8.9-109.8c-11.4-38-22.2-74-1.5-108.5c27.5-45.9,13.7-91.9,1.5-132.5
			c-10.6-35.4-20.7-68.9-5.4-101.2h32c-12.5,38.2-1.2,75.9,8.9,109.8c11.4,38,22.2,74,1.5,108.5
			C442.7,294.1,456.6,340.2,468.8,380.8L468.8,380.8z"/>
		<path fill="#007EFF" d="M175.7,160.7c-52.6,0-95.3,42.8-95.3,95.3s42.8,95.3,95.3,95.3S271,308.6,271,256S228.3,160.7,175.7,160.7
			L175.7,160.7z M175.7,321.3c-36,0-65.3-29.3-65.3-65.3s29.3-65.3,65.3-65.3S241,220,241,256S211.7,321.3,175.7,321.3z"/>
		<path fill="#007EFF" d="M191.8,224.9c-3.9,0-7.8,1.6-10.6,4.4c-2.8,2.8-4.4,6.6-4.4,10.6s1.6,7.8,4.4,10.6s6.6,4.4,10.6,4.4
			s7.8-1.6,10.6-4.4s4.4-6.7,4.4-10.6s-1.6-7.8-4.4-10.6C199.6,226.5,195.7,224.9,191.8,224.9z"/>
	</g>
</g>
</svg>
