<?xml version="1.0"?>
<svg xmlns="http://www.w3.org/2000/svg" xmlns:xlink="http://www.w3.org/1999/xlink" xmlns:svgjs="http://svgjs.com/svgjs" version="1.1" width="512" height="512" x="0" y="0" viewBox="0 0 512 512" style="enable-background:new 0 0 512 512" xml:space="preserve" class=""><g><path xmlns="http://www.w3.org/2000/svg" d="m376 202.933594h-203.070312c-10.394532-17.914063-29.769532-30-51.929688-30-33.085938 0-60 26.917968-60 60 0 10.925781 2.949219 21.167968 8.070312 30h-39.070312v-120h-30v300h30v-90h452v90h30v-180h-62.507812c-6.96875-34.191406-37.273438-60-73.492188-60zm0 30c24.8125 0 45 20.1875 45 45v45h-240c0-15.246094 0-66.089844 0-90zm-285 0c0-16.542969 13.457031-30 30-30s30 13.457031 30 30v30h-30c-16.542969 0-30-13.457032-30-30zm-61 60h121v30h-121zm452 30h-31v-30h31zm0 0" fill="#ffffff" data-original="#000000" style=""/><path xmlns="http://www.w3.org/2000/svg" d="m254.628906 155.335938 9.820313 8.515624 9.824219-8.515624c43.65625-37.835938 79.601562-61.332032 79.601562-99.941407 0-31.0625-22.933594-55.394531-52.210938-55.394531-15.890624 0-28.265624 7.316406-37.179687 17.441406-8.90625-10.125-21.300781-17.441406-37.246094-17.441406-29.277343 0-52.210937 24.332031-52.210937 55.394531 0 38.113281 34.65625 60.992188 79.601562 99.941407zm-27.390625-125.335938c14.851563 0 21.484375 17.988281 22.664063 21.59375l3.378906 10.339844h22.339844l3.398437-10.300782c1.671875-5.074218 8.25-21.632812 22.644531-21.632812 14.582032 0 22.210938 12.773438 22.210938 25.394531 0 20.605469-23.246094 38.085938-59.425781 68.84375-37.769531-32.117187-59.421875-48.558593-59.421875-68.84375 0-12.621093 7.628906-25.394531 22.210937-25.394531zm0 0" fill="#ffffff" data-original="#000000" style=""/></g></svg>
