<?xml version="1.0"?>
<svg xmlns="http://www.w3.org/2000/svg" xmlns:xlink="http://www.w3.org/1999/xlink" xmlns:svgjs="http://svgjs.com/svgjs" version="1.1" width="512" height="512" x="0" y="0" viewBox="0 0 512 512" style="enable-background:new 0 0 512 512" xml:space="preserve" class=""><g><path xmlns="http://www.w3.org/2000/svg" d="m301 391h60v-60h151v-90h-391v-211h90v32.507812c-34.191406 6.96875-60 37.273438-60 73.492188v15h210v-15c0-36.21875-25.808594-66.523438-60-73.492188v-62.507812c-15.511719 0-208.851562 0-210 0v241h-91v90h151v60h60v61h-32.578125c-6.195313-17.457031-22.867187-30-42.421875-30-24.8125 0-45 20.1875-45 45s20.1875 45 45 45c19.554688 0 36.226562-12.542969 42.421875-30h155.15625c6.195313 17.457031 22.867187 30 42.421875 30 24.8125 0 45-20.1875 45-45s-20.1875-45-45-45c-19.554688 0-36.226562 12.542969-42.421875 30h-32.578125zm27.429688-270h-144.859376c6.191407-17.460938 22.871094-30 42.429688-30h60c19.558594 0 36.238281 12.539062 42.429688 30zm-57.429688-91v31h-30v-31zm-241 241h452v30h-452zm151 60h150v30h-150zm60 60h30v61h-30zm-105 91c-8.269531 0-15-6.730469-15-15s6.730469-15 15-15 15 6.730469 15 15-6.730469 15-15 15zm240-30c8.269531 0 15 6.730469 15 15s-6.730469 15-15 15-15-6.730469-15-15 6.730469-15 15-15zm0 0" fill="#ffffff" data-original="#000000" style="" class=""/></g></svg>
