<?xml version="1.0" encoding="utf-8"?>
<!-- Generator: Adobe Illustrator 18.0.0, SVG Export Plug-In . SVG Version: 6.00 Build 0)  -->
<!DOCTYPE svg PUBLIC "-//W3C//DTD SVG 1.1//EN" "http://www.w3.org/Graphics/SVG/1.1/DTD/svg11.dtd">
<svg version="1.1" id="Layer_1" xmlns:svgjs="http://svgjs.com/svgjs"
	 xmlns="http://www.w3.org/2000/svg" xmlns:xlink="http://www.w3.org/1999/xlink" x="0px" y="0px" viewBox="0 0 512 512"
	 enable-background="new 0 0 512 512" xml:space="preserve">
<g>
	<path fill="#56FF00" d="M345.9,408.4c-0.6,0-1.2,0-1.8,0c-7.1-0.6-13.1-5.4-15.5-11.9L250,170.3l-72.6,166.1
		c-2.4,5.4-7.1,9.5-13.1,10.1c-6,1.2-11.9-0.6-16.1-4.8L67.9,262h-50C7.7,262,0,254.2,0,244.1s7.7-17.9,17.9-17.9H75
		c4.8,0,8.9,1.8,12.5,5.4l67.9,66.7l80.4-184c3-6.5,9.5-10.7,17.3-10.7c7.1,0,13.7,4.8,16.1,11.9l80.4,231.6l56.6-100
		c3-5.4,8.9-8.9,15.5-8.9h72.6c10.1,0,17.9,7.7,17.9,17.9c0,10.1-7.7,17.9-17.9,17.9h-61.9l-70.8,125.6
		C358.4,404.8,352.4,408.4,345.9,408.4z"/>
</g>
</svg>
