<?xml version="1.0" encoding="utf-8"?>
<!-- Generator: Adobe Illustrator 18.0.0, SVG Export Plug-In . SVG Version: 6.00 Build 0)  -->
<!DOCTYPE svg PUBLIC "-//W3C//DTD SVG 1.1//EN" "http://www.w3.org/Graphics/SVG/1.1/DTD/svg11.dtd">
<svg version="1.1" id="Layer_1" xmlns:svgjs="http://svgjs.com/svgjs"
	 xmlns="http://www.w3.org/2000/svg" xmlns:xlink="http://www.w3.org/1999/xlink" x="0px" y="0px" viewBox="0 0 512 512"
	 enable-background="new 0 0 512 512" xml:space="preserve">
<g>
	<g>
		<g>
			<path fill="#FFE000" d="M315.8,19.9H256v37.4h41.1v70.4c0,61.8-50.3,112.1-112.1,112.1S72.9,189.5,72.9,127.7V57.3h39.9V19.9
				H54.2c-10.3,0-18.7,8.4-18.7,18.7v89.1c0,82.4,67.1,149.5,149.5,149.5s149.5-67.1,149.5-149.5V38.6
				C334.5,28.3,326.1,19.9,315.8,19.9z"/>
		</g>
	</g>
	<g>
		<g>
			<path fill="#FFE000" d="M388.7,292.7v88.4c0,51.5-41.9,93.4-93.4,93.4s-93.4-41.9-93.4-93.4V259.1h-37.4v122.1
				c0,72.1,58.7,130.8,130.8,130.8c72.1,0,130.8-58.7,130.8-130.8v-88.4L388.7,292.7L388.7,292.7z"/>
		</g>
	</g>
	<g>
		<g>
			<path fill="#FFE000" d="M407.4,171.9c-38.1,0-69.1,31-69.1,69.1c0,38.1,31,69.1,69.1,69.1s69.1-31,69.1-69.1
				C476.5,202.9,445.5,171.9,407.4,171.9z M407.4,272.8c-17.5,0-31.8-14.3-31.8-31.8s14.3-31.8,31.8-31.8
				c17.5,0,31.8,14.3,31.8,31.8S424.9,272.8,407.4,272.8z"/>
		</g>
	</g>
	<g>
		<g>
			<path fill="#FFE000" d="M112.1,0c-10.3,0-18.7,8.4-18.7,18.7v39.9c0,10.3,8.4,18.7,18.7,18.7s18.7-8.4,18.7-18.7V18.7
				C130.8,8.4,122.4,0,112.1,0z"/>
		</g>
	</g>
	<g>
		<g>
			<path fill="#FFE000" d="M256.6,0c-10.3,0-18.7,8.4-18.7,18.7v39.9c0,10.3,8.4,18.7,18.7,18.7c10.3,0,18.7-8.4,18.7-18.7V18.7
				C275.3,8.4,266.9,0,256.6,0z"/>
		</g>
	</g>
</g>
</svg>
