<?xml version="1.0" encoding="utf-8"?>
<!-- Generator: Adobe Illustrator 18.0.0, SVG Export Plug-In . SVG Version: 6.00 Build 0)  -->
<!DOCTYPE svg PUBLIC "-//W3C//DTD SVG 1.1//EN" "http://www.w3.org/Graphics/SVG/1.1/DTD/svg11.dtd">
<svg version="1.1" id="Layer_1" xmlns:svgjs="http://svgjs.com/svgjs"
	 xmlns="http://www.w3.org/2000/svg" xmlns:xlink="http://www.w3.org/1999/xlink" x="0px" y="0px" viewBox="0 0 512 512"
	 enable-background="new 0 0 512 512" xml:space="preserve">
<g>
	<g>
		<g>
			<path fill="#6200FF" d="M341.3,288.6V85.3C341.3,38.2,303.1,0,256,0s-85.3,38.2-85.3,85.3v203.3C144.5,312,128,346.1,128,384
				c0,70.7,57.3,128,128,128s128-57.3,128-128C384,346.1,367.5,312,341.3,288.6z M256,469.3c-47.1,0-85.3-38.2-85.3-85.3
				c0-24.6,10.4-47.5,28.5-63.6l14.2-12.7V85.3c0-23.6,19.1-42.7,42.7-42.7s42.7,19.1,42.7,42.7v222.3l14.2,12.7
				c18,16.1,28.5,39,28.5,63.6C341.3,431.1,303.1,469.3,256,469.3z"/>
		</g>
	</g>
	<g>
		<g>
			<rect x="234.7" y="170.7" fill="#6200FF" width="42.7" height="256"/>
		</g>
	</g>
	<g>
		<g>
			<circle fill="#6200FF" cx="256" cy="384" r="64"/>
		</g>
	</g>
</g>
</svg>
