<?xml version="1.0"?>
<svg xmlns="http://www.w3.org/2000/svg" xmlns:xlink="http://www.w3.org/1999/xlink" xmlns:svgjs="http://svgjs.com/svgjs" version="1.1" width="512" height="512" x="0" y="0" viewBox="0 0 511.998 511.998" style="enable-background:new 0 0 512 512" xml:space="preserve" class=""><g>
<g xmlns="http://www.w3.org/2000/svg">
	<g>
		<path d="M508.18,246.001c-1.149-1.286-28.673-31.85-73.235-62.677c-59.582-41.217-121.461-63.003-178.946-63.003    s-119.364,21.786-178.946,63.003C32.49,214.151,4.967,244.715,3.818,246.001c-5.091,5.693-5.091,14.303,0,19.996    c1.149,1.286,28.673,31.85,73.235,62.677c59.582,41.217,121.461,63.003,178.946,63.003s119.364-21.786,178.946-63.003    c44.563-30.827,72.086-61.391,73.235-62.677C513.271,260.303,513.271,251.694,508.18,246.001z M94.726,304.42    c-26.936-18.565-47.504-37.332-58.8-48.415c19.373-18.975,66.061-60.527,126.015-85.503c-20.561,22.599-33.11,52.61-33.11,85.497    c0,32.847,12.519,62.824,33.034,85.414C135.804,330.575,112.871,316.927,94.726,304.42z M255.999,353.167    c-53.579,0-97.169-43.59-97.169-97.168c0-53.579,43.59-97.168,97.169-97.168s97.169,43.589,97.169,97.168    S309.578,353.167,255.999,353.167z M350.057,341.496c20.561-22.599,33.11-52.61,33.11-85.498    c0-32.847-12.519-62.824-33.034-85.414c26.061,10.838,48.994,24.486,67.139,36.993c26.934,18.563,47.5,37.329,58.8,48.415    C456.699,274.968,410.011,316.52,350.057,341.496z" fill="#ffffff" data-original="#000000" style=""/>
	</g>
</g>
<g xmlns="http://www.w3.org/2000/svg">
	<g>
		<path d="M255.999,207.656c-26.656,0-48.343,21.687-48.343,48.343s21.687,48.343,48.343,48.343c8.284,0,15-6.716,15-15    c0-4.142-1.679-7.892-4.394-10.607c-2.714-2.714-6.464-4.393-10.606-4.393c-10.114,0-18.343-8.229-18.343-18.343    c0-10.114,8.229-18.343,18.343-18.343c10.114,0,18.343,8.229,18.343,18.343c0,4.142,1.679,7.892,4.394,10.607    c2.714,2.714,6.464,4.393,10.606,4.393c8.284,0,15-6.716,15-15C304.342,229.343,282.655,207.656,255.999,207.656z" fill="#ffffff" data-original="#000000" style=""/>
	</g>
</g>
<g xmlns="http://www.w3.org/2000/svg">
</g>
<g xmlns="http://www.w3.org/2000/svg">
</g>
<g xmlns="http://www.w3.org/2000/svg">
</g>
<g xmlns="http://www.w3.org/2000/svg">
</g>
<g xmlns="http://www.w3.org/2000/svg">
</g>
<g xmlns="http://www.w3.org/2000/svg">
</g>
<g xmlns="http://www.w3.org/2000/svg">
</g>
<g xmlns="http://www.w3.org/2000/svg">
</g>
<g xmlns="http://www.w3.org/2000/svg">
</g>
<g xmlns="http://www.w3.org/2000/svg">
</g>
<g xmlns="http://www.w3.org/2000/svg">
</g>
<g xmlns="http://www.w3.org/2000/svg">
</g>
<g xmlns="http://www.w3.org/2000/svg">
</g>
<g xmlns="http://www.w3.org/2000/svg">
</g>
<g xmlns="http://www.w3.org/2000/svg">
</g>
</g></svg>
