<svg xmlns="http://www.w3.org/2000/svg" width="141.36" height="21.96" viewBox="0 0 141.36 21.96">
  <g id="logo" transform="translate(-184.71 -47.52)">
    <path id="Path_10" data-name="Path 10" d="M26.91,0l-.06-21H21.03L14.37-9.81,7.53-21H1.71V0H8.16V-9.24l4.56,7.35h3.12L20.4-9.57,20.46,0ZM37.29-5.34V-8.1h8.88v-5.1H37.29v-2.46H47.4V-21H30.33V0H47.79V-5.34ZM50.52,0H60.87c7.02,0,11.85-3.99,11.85-10.5S67.89-21,60.87-21H50.52ZM57.6-5.52v-9.96h2.97a4.625,4.625,0,0,1,5.01,4.98,4.625,4.625,0,0,1-5.01,4.98ZM75.3,0h7.08V-21H75.3ZM96.66.48c4.11,0,7.35-1.5,9.42-4.2l-4.47-3.99a5.673,5.673,0,0,1-4.59,2.46c-2.94,0-4.92-2.04-4.92-5.25s1.98-5.25,4.92-5.25a5.673,5.673,0,0,1,4.59,2.46l4.47-3.99c-2.07-2.7-5.31-4.2-9.42-4.2-6.75,0-11.7,4.53-11.7,10.98S89.91.48,96.66.48Z" transform="translate(183 69)" fill="#1a1a1a"/>
    <path id="Path_11" data-name="Path 11" d="M1.71,0H8.79V-21H1.71ZM23.22.48c6.84,0,11.85-4.62,11.85-10.98S30.06-21.48,23.22-21.48,11.37-16.86,11.37-10.5,16.38.48,23.22.48Zm0-5.73c-2.61,0-4.71-1.98-4.71-5.25s2.1-5.25,4.71-5.25,4.71,1.98,4.71,5.25S25.83-5.25,23.22-5.25Z" transform="translate(291 69)" fill="#0cb8b6"/>
  </g>
</svg>
